<svg xmlns="http://www.w3.org/2000/svg" xmlns:xlink="http://www.w3.org/1999/xlink" width="256" zoomAndPan="magnify" viewBox="0 0 192 192" height="256" preserveAspectRatio="xMidYMid meet" xmlns:v="https://vecta.io/nano"><defs><clipPath id="A"><path d="M2.813 138h186.75v16H2.813zm0 0" clip-rule="nonzero"/></clipPath><clipPath id="B"><path d="M2.813 126h186.75v22H2.813zm0 0" clip-rule="nonzero"/></clipPath><clipPath id="C"><path d="M2.813 10.266h186.75V127H2.813zm0 0" clip-rule="nonzero"/></clipPath><path id="D" d="M38.383 30.066H26.527c-.82 0-1.484-.664-1.484-1.48s.664-1.48 1.484-1.48h11.855c.82 0 1.484.664 1.484 1.48s-.664 1.48-1.484 1.48zm0 0"/><path id="E" d="M13.188 73.023c0-.82-.664-1.484-1.484-1.484v2.965c.82 0 1.484-.664 1.484-1.48zm0 0"/><path id="F" d="M13.188 81.91c0-.816-.664-1.48-1.484-1.48v2.965c.82 0 1.484-.664 1.484-1.484zm0 0"/><path id="G" d="M13.188 108.582c0-.816-.664-1.48-1.484-1.48v2.961c.82 0 1.484-.664 1.484-1.48zm0 0"/></defs><path fill="#e6e9ed" d="M11.703 19.664h5.93v97.824h-5.93zm0 0"/><path fill="#434a54" d="M17.633 19.695h163.035v97.762H17.633zm0 0"/><path fill="#ccd1d9" d="M100.633 136.719c0 .293-.027.582-.086.867s-.141.566-.25.836a4.39 4.39 0 0 1-.414.766c-.16.246-.344.469-.551.676a4.34 4.34 0 0 1-.676.551 4.39 4.39 0 0 1-.766.414 4.56 4.56 0 0 1-.836.25c-.285.059-.574.086-.867.086s-.582-.027-.867-.086-.566-.141-.836-.25a4.39 4.39 0 0 1-.766-.414c-.246-.16-.469-.344-.676-.551s-.391-.43-.555-.676-.297-.496-.41-.766a4.7 4.7 0 0 1-.254-.836c-.055-.285-.082-.574-.082-.867s.027-.578.082-.867.145-.562.254-.832.25-.527.41-.77.348-.469.555-.672.43-.391.676-.555.496-.297.766-.41.551-.195.836-.254.574-.086.867-.086.582.031.867.086.563.141.836.254.523.25.766.41a4.6 4.6 0 0 1 .676.555c.207.203.391.43.551.672s.301.5.414.77.195.547.25.832a4.35 4.35 0 0 1 .086.867zm0 0"/><g clip-path="url(#A)"><path fill="#ccd1d9" d="M189.563 138.262v5.867c0 5.004-3.887 8.891-8.895 8.891h-65.242-38.477-65.246c-5.004 0-8.891-3.887-8.891-8.891v-5.867c0 4.887 4 8.891 8.891 8.891h168.965c4.891 0 8.895-4.004 8.895-8.891zm0 0"/></g><path fill="#ccd1d9" d="M115.426 153.02l5.93 26.668H71.02l5.93-26.668h38.477zm0 0"/><g clip-path="url(#B)"><path fill="#e6e9ed" d="M96.188 126.348H2.813v11.914c0 4.887 4 8.891 8.891 8.891h168.965c4.891 0 8.895-4.004 8.895-8.891v-11.914zm0 14.816a4.44 4.44 0 1 1 0-8.891 4.44 4.44 0 1 1 0 8.891zm0 0"/></g><g clip-path="url(#C)"><path fill="#656d78" d="M189.563 19.727v106.621H2.813V19.727c0-4.887 4-8.891 8.891-8.891h168.965c4.891 0 8.895 4 8.895 8.891zm-8.895 97.73V19.664H11.703v97.793zm0 0"/></g><path fill="#aab2bd" d="M116.086 155.98l-.66-2.961H76.949l-.66 2.961zm0 0"/><path fill="#e6e9ed" d="M125.828 181.152H66.543c-.816 0-1.48-.664-1.48-1.48a1.48 1.48 0 0 1 1.48-1.48h59.285a1.48 1.48 0 0 1 1.484 1.48c0 .816-.664 1.48-1.484 1.48zm0 0"/><use xlink:href="#D" fill="#ffce54"/><path d="M91.742 38.957h-41.5c-.82 0-1.484-.664-1.484-1.48a1.48 1.48 0 0 1 1.484-1.48h41.5a1.48 1.48 0 0 1 0 2.96zm-47.429 0h-14.82c-.82 0-1.484-.664-1.484-1.48a1.48 1.48 0 0 1 1.484-1.48h14.82a1.48 1.48 0 0 1 0 2.96zm0 0" fill="#ac92ec"/><path d="M127.313 47.848H88.777c-.82 0-1.484-.664-1.484-1.48s.664-1.484 1.484-1.484h38.535c.816 0 1.48.664 1.48 1.484a1.48 1.48 0 0 1-1.48 1.48zm17.785 0h-11.855c-.82 0-1.484-.664-1.484-1.48s.664-1.484 1.484-1.484h11.855c.816 0 1.48.664 1.48 1.484a1.48 1.48 0 0 1-1.48 1.48zm-62.25 0H32.453a1.48 1.48 0 0 1-1.48-1.48c0-.816.664-1.484 1.48-1.484h50.395c.816 0 1.48.664 1.48 1.484a1.48 1.48 0 0 1-1.48 1.48zm0 0" fill="#5d9cec"/><path d="M47.281 65.629H38.39c-.82 0-1.484-.664-1.484-1.484a1.48 1.48 0 0 1 1.484-1.48h8.891c.82 0 1.484.664 1.484 1.48s-.664 1.484-1.484 1.484zm49.93 0h-44c-.816 0-1.48-.664-1.48-1.484a1.48 1.48 0 0 1 1.48-1.48h44c.82 0 1.484.664 1.484 1.48s-.664 1.484-1.484 1.484zm0 0" fill="#ed5565"/><path fill="#a0d468" d="M103.598 56.738h-68.18c-.816 0-1.48-.664-1.48-1.48s.664-1.484 1.48-1.484h68.18c.816 0 1.48.664 1.48 1.484s-.664 1.48-1.48 1.48zm0 0"/><path fill="#4fc1e9" d="M106.566 74.52H79.891c-.82 0-1.484-.664-1.484-1.484s.664-1.48 1.484-1.48h26.676c.82 0 1.484.664 1.484 1.48s-.664 1.484-1.484 1.484zm0 0"/><path fill="#a0d468" d="M85.816 83.41H35.426c-.82 0-1.484-.664-1.484-1.484s.664-1.48 1.484-1.48h50.391c.82 0 1.484.664 1.484 1.48s-.664 1.484-1.484 1.484zm0 0"/><path fill="#ac92ec" d="M53.203 101.188H29.492c-.82 0-1.484-.664-1.484-1.48s.664-1.48 1.484-1.48h23.711c.82 0 1.484.664 1.484 1.48s-.664 1.48-1.484 1.48zm0 0"/><path d="M112.492 92.297h-41.5a1.48 1.48 0 0 1-1.484-1.48c0-.816.664-1.48 1.484-1.48h41.5a1.48 1.48 0 1 1 0 2.96zm8.891 0h-2.965a1.48 1.48 0 1 1 0-2.96h2.965c.82 0 1.484.664 1.484 1.48a1.48 1.48 0 0 1-1.484 1.48zm-56.32 0h-32.61a1.48 1.48 0 1 1 0-2.96h32.609a1.48 1.48 0 1 1 0 2.96zm0 0" fill="#5d9cec"/><use xlink:href="#D" y="80.012" fill="#ffce54"/><path fill="#a0d468" d="M109.531 83.41H91.746c-.816 0-1.48-.664-1.48-1.484s.664-1.48 1.48-1.48h17.785c.82 0 1.484.664 1.484 1.48s-.664 1.484-1.484 1.484zm0 0"/><path d="M133.246 74.52h-20.75c-.816 0-1.48-.664-1.48-1.484a1.48 1.48 0 0 1 1.48-1.48h20.75c.82 0 1.484.664 1.484 1.48s-.664 1.484-1.484 1.484zm-59.285 0h-35.57c-.82 0-1.484-.664-1.484-1.484a1.48 1.48 0 0 1 1.484-1.48h35.57a1.48 1.48 0 0 1 1.48 1.48c0 .816-.664 1.484-1.48 1.484zm0 0" fill="#4fc1e9"/><g fill="#ccd1d9"><use xlink:href="#E"/><use xlink:href="#F"/><use xlink:href="#F" y="8.891"/><use xlink:href="#F" y="17.781"/><use xlink:href="#G"/><use xlink:href="#E" y="-8.89"/><use xlink:href="#E" y="-17.781"/><use xlink:href="#G" y="-62.23"/><use xlink:href="#G" y="-71.121"/><path d="M13.188 28.57c0-.816-.664-1.48-1.484-1.48v2.961a1.48 1.48 0 0 0 1.484-1.48zm0 0"/></g></svg>